<svg width="24" height="23" viewBox="0 0 24 23" fill="none" xmlns="http://www.w3.org/2000/svg"><path d="M1.25 6.88045V16.0109L11.25 21.2283M1.25 6.88045L11.25 12.0978M1.25 6.88045L6.46739 4.05436M11.25 21.2283V12.0978M11.25 21.2283L21.6848 15.5761V6.44566M11.25 12.0978L16.4674 9.27175M21.6848 6.44566L11.6848 1.22827L6.46739 4.05436M21.6848 6.44566L16.4674 9.27175M16.4674 9.27175L6.46739 4.05436" stroke="white" stroke-width="2" stroke-linejoin="round"/><path d="M15.5 10.832L17.5 9.75V12.601C17.5 12.6928 17.4497 12.7772 17.369 12.8209L15.7214 13.7123C15.6214 13.7663 15.5 13.694 15.5 13.5803V10.832Z" fill="white"/></svg>
