<svg width="120" height="14" viewBox="0 0 120 14" fill="none" xmlns="http://www.w3.org/2000/svg">
<g clip-path="url(#clip0_327_884)">
<path d="M12.9043 8.34338H13.5902L14.7475 12.4649H14.762L15.9836 8.34338H16.6127L15.0479 13.3978H14.4192L12.9043 8.34338Z" fill="#1C63B7"/>
<path d="M18.2115 12.9564C18.7832 12.9564 19.0476 12.478 19.0476 11.5512C19.0476 10.6244 18.7832 10.1475 18.2115 10.1475C17.64 10.1475 17.3754 10.6244 17.3754 11.5512C17.3754 12.478 17.64 12.9564 18.2115 12.9564ZM18.2115 9.65411C19.1762 9.65411 19.6763 10.3926 19.6763 11.5512C19.6763 12.7098 19.1762 13.4483 18.2115 13.4483C17.2471 13.4483 16.7471 12.7098 16.7471 11.5512C16.7471 10.3926 17.2471 9.65411 18.2115 9.65411Z" fill="#1C63B7"/>
<path d="M20.4531 7.96808H21.0532V13.3977H20.4531V7.96808Z" fill="#1C63B7"/>
<path d="M23.8321 9.70523H24.5324L23.1034 11.3556L24.6604 13.3977H23.9179L22.5959 11.538H22.5815V13.3977H21.9814V7.96808H22.5815V11.1897L23.8321 9.70523Z" fill="#1C63B7"/>
<path d="M25.16 12.6814C25.4314 12.8473 25.717 12.9564 26.0173 12.9564C26.4746 12.9564 26.71 12.7173 26.71 12.4347C26.71 12.1821 26.5814 12.0071 26.246 11.8562L25.8459 11.6753C25.3241 11.4361 25.1311 11.1969 25.1311 10.726C25.1311 10.1176 25.5957 9.65411 26.3029 9.65411C26.6029 9.65411 26.8672 9.70496 27.0743 9.7842L27.046 10.3059C26.8601 10.2192 26.6029 10.1475 26.3315 10.1475C25.9385 10.1475 25.7314 10.3642 25.7314 10.6543C25.7314 10.9502 25.9456 11.1176 26.346 11.2761L26.5601 11.3628C27.003 11.5438 27.2817 11.8487 27.2817 12.3047C27.2817 12.9415 26.9457 13.4483 26.11 13.4483C25.7314 13.4483 25.3883 13.369 25.124 13.2315L25.16 12.6814Z" fill="#1C63B7"/>
<path d="M29.3168 12.9564C29.867 12.9564 30.1169 12.478 30.1169 11.5512C30.1169 10.6243 29.867 10.1474 29.3168 10.1474C28.7666 10.1474 28.5164 10.6243 28.5164 11.5512C28.5164 12.478 28.7666 12.9564 29.3168 12.9564ZM27.9164 7.96777H28.5164V10.2117H28.5309C28.7736 9.82152 29.045 9.65408 29.4595 9.65408C30.2097 9.65408 30.7172 10.2775 30.7172 11.5512C30.7172 12.8264 30.2097 13.4483 29.4595 13.4483C28.9308 13.4483 28.6595 13.1448 28.5025 12.8548H28.4881L28.4665 13.3974H27.8877C27.8951 13.1732 27.9164 12.9415 27.9164 12.7172V7.96777Z" fill="#1C63B7"/>
<path d="M33.3515 11.5871C33.2445 11.5736 33.0943 11.5736 32.93 11.5736C32.2229 11.5736 31.8869 11.913 31.8869 12.3405C31.8869 12.7322 32.0871 12.9848 32.5014 12.9848C33.0232 12.9848 33.3515 12.5588 33.3515 12.0505V11.5871ZM31.6081 9.95908C31.9084 9.76325 32.2801 9.65411 32.6371 9.65411C33.1728 9.65411 33.4944 9.88584 33.6088 10.0024C33.7661 10.1609 33.9233 10.3851 33.9233 10.9069V12.8339C33.9233 13.0506 33.9375 13.2674 33.9517 13.3974H33.4088L33.3731 12.8981H33.3587C33.1946 13.1807 32.8943 13.4483 32.3373 13.4483C31.737 13.4483 31.2871 13.094 31.2871 12.3839C31.2871 11.6678 31.7511 11.1386 33.0017 11.1386H33.3515V10.9727C33.3515 10.6976 33.3303 10.5376 33.2159 10.3792C33.0943 10.2118 32.8586 10.1475 32.6088 10.1475C32.237 10.1475 31.8797 10.2984 31.6727 10.5302L31.6081 9.95908Z" fill="#1C63B7"/>
<path d="M34.808 10.5021C34.808 10.2345 34.7867 9.96538 34.7793 9.70526H35.3581L35.3797 10.2554H35.3941C35.5868 9.8353 35.8942 9.65442 36.3155 9.65442C36.9512 9.65442 37.3801 10.0237 37.3801 10.8354V13.3977H36.7798V11.0163C36.7798 10.4288 36.5656 10.1762 36.1798 10.1762C35.7083 10.1762 35.408 10.5095 35.408 11.1748V13.3977H34.808V10.5021Z" fill="#1C63B7"/>
<path d="M40.1368 9.70523H40.8368L39.4078 11.3556L40.9654 13.3977H40.222L38.9003 11.538H38.8862V13.3977H38.2861V7.96808H38.8862V11.1897L40.1368 9.70523Z" fill="#1C63B7"/>
<path d="M43.2361 11.2686C43.2361 10.5018 43.0004 10.1176 42.5212 10.1176C42.1353 10.1176 41.7925 10.4076 41.7787 11.2686H43.2361ZM41.7787 11.7321C41.7787 12.5872 42.107 12.9848 42.7716 12.9848C43.0714 12.9848 43.4003 12.8339 43.6078 12.6814L43.6361 13.2315C43.3502 13.369 42.9785 13.4483 42.6141 13.4483C41.6497 13.4483 41.1494 12.7098 41.1494 11.5512C41.1494 10.3926 41.6497 9.65411 42.5569 9.65411C43.3788 9.65411 43.8364 10.3208 43.8364 11.4062V11.7321H41.7787Z" fill="#1C63B7"/>
<path d="M44.5484 10.5021C44.5484 10.2345 44.5269 9.96538 44.5195 9.70526H45.0986L45.1199 10.2554H45.1343C45.3273 9.8353 45.6343 9.65442 46.0559 9.65442C46.6917 9.65442 47.1206 10.0237 47.1206 10.8354V13.3977H46.5203V11.0163C46.5203 10.4288 46.3058 10.1762 45.9202 10.1762C45.4485 10.1762 45.1485 10.5095 45.1485 11.1748V13.3977H44.5484V10.5021Z" fill="#1C63B7"/>
<path d="M49.8476 10.5888H50.3338C51.0049 10.5888 51.2625 10.1403 51.2625 9.69778C51.2625 9.13269 50.8982 8.86512 50.3476 8.86512H49.8476V10.5888ZM49.2178 8.34338H50.4975C51.0271 8.34338 51.3192 8.47492 51.5477 8.69169C51.8059 8.93837 51.9197 9.28518 51.9197 9.65443C51.9197 10.1911 51.6702 10.7054 50.9341 10.8638V10.8788C51.2336 10.9371 51.3766 11.0806 51.477 11.3706L52.1768 13.3978H51.4976L50.9267 11.6891C50.7837 11.269 50.6052 11.1105 50.1332 11.1105H49.8476V13.3978H49.2178V8.34338Z" fill="#1C63B7"/>
<path d="M54.7338 11.5871C54.6267 11.5736 54.4762 11.5736 54.3122 11.5736C53.6041 11.5736 53.2684 11.913 53.2684 12.3405C53.2684 12.7322 53.4686 12.9848 53.8829 12.9848C54.4053 12.9848 54.7338 12.5588 54.7338 12.0505V11.5871ZM52.9902 9.95908C53.2902 9.76325 53.6615 9.65411 54.0189 9.65411C54.5543 9.65411 54.876 9.88584 54.9908 10.0024C55.1476 10.1609 55.3048 10.3851 55.3048 10.9069V12.8339C55.3048 13.0506 55.3198 13.2674 55.3327 13.3974H54.7902L54.755 12.8981H54.74C54.5765 13.1807 54.276 13.4483 53.7195 13.4483C53.1189 13.4483 52.6689 13.094 52.6689 12.3839C52.6689 11.6678 53.1329 11.1386 54.3831 11.1386H54.7338V10.9727C54.7338 10.6976 54.712 10.5376 54.5977 10.3792C54.4762 10.2118 54.2398 10.1475 53.9905 10.1475C53.6191 10.1475 53.2622 10.2984 53.0538 10.5302L52.9902 9.95908Z" fill="#1C63B7"/>
<path d="M56.218 9.70526H56.8174V13.3977H56.218V9.70526ZM56.8464 8.18488V8.90844H56.1885V8.18488H56.8464Z" fill="#1C63B7"/>
<path d="M58.0241 10.1971H57.4453V9.70523H58.0241V8.88002C58.0241 8.27904 58.2962 7.87988 58.9319 7.87988C59.0958 7.87988 59.2676 7.90233 59.4036 7.93818V8.45992C59.3317 8.40162 59.2034 8.37323 59.0601 8.37323C58.7239 8.37323 58.6241 8.56161 58.6241 8.93087V9.70523H59.2815V10.1971H58.6241V13.3977H58.0241V10.1971Z" fill="#1C63B7"/>
<path d="M60.2599 10.1971H59.6816V9.70523H60.2599V8.88002C60.2599 8.27904 60.531 7.87988 61.1672 7.87988C61.3322 7.87988 61.5034 7.90233 61.6389 7.93818V8.45992C61.5665 8.40162 61.4382 8.37323 61.2954 8.37323C60.9603 8.37323 60.8599 8.56161 60.8599 8.93087V9.70523H61.5163V10.1971H60.8599V13.3977H60.2599V10.1971Z" fill="#1C63B7"/>
<path d="M63.9386 11.2686C63.9386 10.5018 63.7022 10.1176 63.2243 10.1176C62.8379 10.1176 62.4944 10.4076 62.481 11.2686H63.9386ZM62.481 11.7321C62.481 12.5872 62.81 12.9848 63.4736 12.9848C63.7731 12.9848 64.102 12.8339 64.31 12.6814L64.3379 13.2315C64.0518 13.369 63.6815 13.4483 63.3158 13.4483C62.3527 13.4483 61.8525 12.7098 61.8525 11.5512C61.8525 10.3926 62.3527 9.65411 63.26 9.65411C64.0813 9.65411 64.5386 10.3208 64.5386 11.4062V11.7321H62.481Z" fill="#1C63B7"/>
<path d="M65.2794 9.70526H65.8794V13.3977H65.2794V9.70526ZM65.9089 8.18488V8.90844H65.251V8.18488H65.9089Z" fill="#1C63B7"/>
<path d="M66.6514 12.6814C66.9229 12.8473 67.209 12.9564 67.5085 12.9564C67.9657 12.9564 68.2021 12.7173 68.2021 12.4347C68.2021 12.1821 68.0738 12.0071 67.7371 11.8562L67.3378 11.6753C66.8154 11.4361 66.6219 11.1969 66.6219 10.726C66.6219 10.1176 67.0869 9.65411 67.795 9.65411C68.094 9.65411 68.3583 9.70496 68.5662 9.7842L68.5383 10.3059C68.3526 10.2192 68.094 10.1475 67.8229 10.1475C67.4303 10.1475 67.2224 10.3642 67.2224 10.6543C67.2224 10.9502 67.4376 11.1176 67.8374 11.2761L68.0516 11.3628C68.4938 11.5438 68.7726 11.8487 68.7726 12.3047C68.7726 12.9415 68.4379 13.4483 67.6016 13.4483C67.2224 13.4483 66.88 13.369 66.6162 13.2315L66.6514 12.6814Z" fill="#1C63B7"/>
<path d="M71.4152 11.2686C71.4152 10.5018 71.1793 10.1176 70.6998 10.1176C70.315 10.1176 69.9711 10.4076 69.9581 11.2686H71.4152ZM69.9581 11.7321C69.9581 12.5872 70.2855 12.9848 70.9507 12.9848C71.2502 12.9848 71.5792 12.8339 71.7871 12.6814L71.815 13.2315C71.529 13.369 71.1571 13.4483 70.793 13.4483C69.8283 13.4483 69.3281 12.7098 69.3281 11.5512C69.3281 10.3926 69.8283 9.65411 70.7355 9.65411C71.5585 9.65411 72.0157 10.3208 72.0157 11.4062V11.7321H69.9581Z" fill="#1C63B7"/>
<path d="M72.7297 10.5021C72.7297 10.2345 72.7074 9.96538 72.7002 9.70526H73.2795L73.3002 10.2554H73.3152C73.5076 9.8353 73.8143 9.65442 74.2364 9.65442C74.8721 9.65442 75.3014 10.0237 75.3014 10.8354V13.3977H74.7014V11.0163C74.7014 10.4288 74.4873 10.1762 74.1009 10.1762C73.6286 10.1762 73.3292 10.5095 73.3292 11.1748V13.3977H72.7297V10.5021Z" fill="#1C63B7"/>
<path d="M77.5703 12.9564C78.1201 12.9564 78.3699 12.478 78.3699 11.5512C78.3699 10.6243 78.1201 10.1474 77.5703 10.1474C77.0199 10.1474 76.7691 10.6243 76.7691 11.5512C76.7691 12.478 77.0199 12.9564 77.5703 12.9564ZM76.1701 7.96777H76.7691V10.2117H76.7841C77.0272 9.82152 77.2992 9.65408 77.713 9.65408C78.463 9.65408 78.9699 10.2775 78.9699 11.5512C78.9699 12.8264 78.463 13.4483 77.713 13.4483C77.1839 13.4483 76.9123 13.1448 76.7561 12.8548H76.7411L76.7205 13.3974H76.1406C76.1484 13.1732 76.1701 12.9415 76.1701 12.7172V7.96777Z" fill="#1C63B7"/>
<path d="M81.6069 11.5871C81.4988 11.5736 81.3483 11.5736 81.1848 11.5736C80.4767 11.5736 80.1415 11.913 80.1415 12.3405C80.1415 12.7322 80.3412 12.9848 80.7555 12.9848C81.2774 12.9848 81.6069 12.5588 81.6069 12.0505V11.5871ZM79.8627 9.95908C80.1627 9.76325 80.5341 9.65411 80.891 9.65411C81.4264 9.65411 81.7481 9.88584 81.8634 10.0024C82.0212 10.1609 82.1779 10.3851 82.1779 10.9069V12.8339C82.1779 13.0506 82.1919 13.2674 82.2058 13.3974H81.6627L81.627 12.8981H81.6126C81.4491 13.1807 81.1491 13.4483 80.5915 13.4483C79.9915 13.4483 79.541 13.094 79.541 12.3839C79.541 11.6678 80.0065 11.1386 81.2557 11.1386H81.6069V10.9727C81.6069 10.6976 81.5841 10.5376 81.4708 10.3792C81.3483 10.2118 81.1119 10.1475 80.8631 10.1475C80.4912 10.1475 80.1343 10.2984 79.9264 10.5302L79.8627 9.95908Z" fill="#1C63B7"/>
<path d="M83.0602 10.5021C83.0602 10.2345 83.04 9.96538 83.0322 9.70526H83.611L83.6327 10.2554H83.6477C83.8396 9.8353 84.1479 9.65442 84.5684 9.65442C85.2036 9.65442 85.6334 10.0237 85.6334 10.8354V13.3977H85.0329V11.0163C85.0329 10.4288 84.8193 10.1762 84.4324 10.1762C83.9622 10.1762 83.6607 10.5095 83.6607 11.1748V13.3977H83.0602V10.5021Z" fill="#1C63B7"/>
<path d="M88.3897 9.70523H89.0891L87.661 11.3556L89.2179 13.3977H88.4751L87.1535 11.538H87.1391V13.3977H86.5391V7.96808H87.1391V11.1897L88.3897 9.70523Z" fill="#1C63B7"/>
<path d="M91.4899 11.2686C91.4899 10.5018 91.2535 10.1176 90.7736 10.1176C90.3892 10.1176 90.0458 10.4076 90.0318 11.2686H91.4899ZM90.0318 11.7321C90.0318 12.5872 90.3613 12.9848 91.0244 12.9848C91.3244 12.9848 91.6529 12.8339 91.8613 12.6814L91.8892 13.2315C91.6032 13.369 91.2313 13.4483 90.8667 13.4483C89.9036 13.4483 89.4023 12.7098 89.4023 11.5512C89.4023 10.3926 89.9036 9.65411 90.8108 9.65411C91.6327 9.65411 92.0899 10.3208 92.0899 11.4062V11.7321H90.0318Z" fill="#1C63B7"/>
<path d="M92.8019 10.5021C92.8019 10.2345 92.7802 9.96538 92.7725 9.70526H93.3518L93.373 10.2554H93.3875C93.5809 9.8353 93.8871 9.65442 94.3097 9.65442C94.9454 9.65442 95.3742 10.0237 95.3742 10.8354V13.3977H94.7742V11.0163C94.7742 10.4288 94.559 10.1762 94.1737 10.1762C93.7014 10.1762 93.4025 10.5095 93.4025 11.1748V13.3977H92.8019V10.5021Z" fill="#1C63B7"/>
<path d="M3.4797 5.31078C3.18646 5.4193 2.68641 5.57147 2.24359 5.57147C0.66467 5.57147 0 4.35484 0 2.98636C0 1.4077 0.907464 0.415649 2.2079 0.415649C2.63626 0.415649 3.03659 0.473669 3.3794 0.639918V1.27735C3.0009 1.08186 2.57932 0.965827 2.21497 0.965827C1.40044 0.965827 0.657 1.62477 0.657 2.85601C0.657 4.15905 1.17209 5.02098 2.25775 5.02098C2.45778 5.02098 2.71503 4.97015 2.87935 4.88351V3.29046H2.04328V2.74005H3.4797V5.31078Z" fill="#1C63B7"/>
<path d="M6.40696 3.39176C6.40696 2.62429 6.17125 2.24036 5.69213 2.24036C5.30653 2.24036 4.96345 2.53007 4.94929 3.39176H6.40696ZM4.94929 3.85522C4.94929 4.70973 5.27792 5.10797 5.94258 5.10797C6.24232 5.10797 6.57128 4.95581 6.7787 4.80387L6.80699 5.35404C6.52111 5.49188 6.14942 5.57143 5.78508 5.57143C4.82066 5.57143 4.32031 4.83258 4.32031 3.67405C4.32031 2.51545 4.82066 1.77698 5.72782 1.77698C6.54977 1.77698 7.00732 2.44342 7.00732 3.52931V3.85522H4.94929Z" fill="#1C63B7"/>
<path d="M7.7194 2.62465C7.7194 2.35645 7.69783 2.08856 7.69043 1.82817H8.26959L8.29079 2.37827H8.30527C8.4979 1.95821 8.80534 1.77734 9.2269 1.77734C9.86269 1.77734 10.2913 2.14658 10.2913 2.95746V5.52096H9.69091V3.13894C9.69091 2.55202 9.47672 2.29874 9.09117 2.29874C8.61945 2.29874 8.31914 2.63154 8.31914 3.29799V5.52096H7.7194V2.62465Z" fill="#1C63B7"/>
<path d="M12.4986 5.07896C13.0701 5.07896 13.3347 4.60088 13.3347 3.67405C13.3347 2.74714 13.0701 2.26937 12.4986 2.26937C11.9269 2.26937 11.6626 2.74714 11.6626 3.67405C11.6626 4.60088 11.9269 5.07896 12.4986 5.07896ZM12.4986 1.77698C13.4634 1.77698 13.9634 2.51545 13.9634 3.67405C13.9634 4.83258 13.4634 5.57143 12.4986 5.57143C11.5342 5.57143 11.0342 4.83258 11.0342 3.67405C11.0342 2.51545 11.5342 1.77698 12.4986 1.77698Z" fill="#1C63B7"/>
<path d="M14.5464 4.80387C14.8178 4.97012 15.1033 5.07896 15.4037 5.07896C15.8611 5.07896 16.0968 4.84008 16.0968 4.55756C16.0968 4.30398 15.9681 4.13031 15.6323 3.97807L15.2323 3.7972C14.7104 3.55801 14.5175 3.31943 14.5175 2.84886C14.5175 2.24036 14.9818 1.77698 15.6896 1.77698C15.9893 1.77698 16.2537 1.8278 16.4611 1.90733L16.4328 2.42872C16.2469 2.34177 15.9893 2.26937 15.7179 2.26937C15.325 2.26937 15.1179 2.48674 15.1179 2.77614C15.1179 3.07305 15.3324 3.2396 15.7323 3.39896L15.9465 3.48598C16.3894 3.66685 16.6682 3.97126 16.6682 4.42721C16.6682 5.06434 16.3325 5.57143 15.4966 5.57143C15.1179 5.57143 14.7751 5.49188 14.5107 5.35404L14.5464 4.80387Z" fill="#1C63B7"/>
<path d="M17.2388 4.80387C17.5102 4.97012 17.7961 5.07896 18.0961 5.07896C18.5534 5.07896 18.7891 4.84008 18.7891 4.55756C18.7891 4.30398 18.6605 4.13031 18.3248 3.97807L17.9247 3.7972C17.4029 3.55801 17.2102 3.31943 17.2102 2.84886C17.2102 2.24036 17.6745 1.77698 18.382 1.77698C18.6817 1.77698 18.9461 1.8278 19.1534 1.90733L19.1251 2.42872C18.9392 2.34177 18.6817 2.26937 18.4103 2.26937C18.0176 2.26937 17.8103 2.48674 17.8103 2.77614C17.8103 3.07305 18.0247 3.2396 18.4248 3.39896L18.639 3.48598C19.0817 3.66685 19.3605 3.97126 19.3605 4.42721C19.3605 5.06434 19.0248 5.57143 18.1888 5.57143C17.8103 5.57143 17.4674 5.49188 17.2031 5.35404L17.2388 4.80387Z" fill="#1C63B7"/>
<path d="M22.0105 3.39176C22.0105 2.62429 21.7747 2.24036 21.2957 2.24036C20.9097 2.24036 20.5669 2.53007 20.5531 3.39176H22.0105ZM20.5531 3.85522C20.5531 4.70973 20.8814 5.10797 21.5461 5.10797C21.8458 5.10797 22.1748 4.95581 22.3819 4.80387L22.4105 5.35404C22.1246 5.49188 21.7529 5.57143 21.3886 5.57143C20.4242 5.57143 19.9238 4.83258 19.9238 3.67405C19.9238 2.51545 20.4242 1.77698 21.3313 1.77698C22.1532 1.77698 22.6108 2.44342 22.6108 3.52931V3.85522H20.5531Z" fill="#1C63B7"/>
<path d="M23.3238 2.62465C23.3238 2.35645 23.3023 2.08856 23.2949 1.82817H23.874L23.8953 2.37827H23.9098C24.1027 1.95821 24.4098 1.77734 24.8314 1.77734C25.4671 1.77734 25.8961 2.14658 25.8961 2.95746V5.52096H25.2958V3.13894C25.2958 2.55202 25.0813 2.29874 24.6957 2.29874C24.2239 2.29874 23.9239 2.63154 23.9239 3.29799V5.52096H23.3238V2.62465Z" fill="#1C63B7"/>
<path d="M26.6305 4.80387C26.9018 4.97012 27.1877 5.07896 27.4877 5.07896C27.9453 5.07896 28.1807 4.84008 28.1807 4.55756C28.1807 4.30398 28.0521 4.13031 27.7164 3.97807L27.3164 3.7972C26.7944 3.55801 26.6018 3.31943 26.6018 2.84886C26.6018 2.24036 27.0658 1.77698 27.7736 1.77698C28.0736 1.77698 28.338 1.8278 28.5451 1.90733L28.5167 2.42872C28.3309 2.34177 28.0736 2.26937 27.8019 2.26937C27.409 2.26937 27.2022 2.48674 27.2022 2.77614C27.2022 3.07305 27.4164 3.2396 27.8164 3.39896L28.0309 3.48598C28.4737 3.66685 28.7525 3.97126 28.7525 4.42721C28.7525 5.06434 28.4165 5.57143 27.581 5.57143C27.2022 5.57143 26.8591 5.49188 26.5947 5.35404L26.6305 4.80387Z" fill="#1C63B7"/>
<path d="M31.6226 2.47212C31.4155 2.35609 31.2084 2.29838 30.9296 2.29838C30.3436 2.29838 29.9292 2.71131 29.9292 3.71018C29.9292 4.56499 30.3298 5.04995 30.9154 5.04995C31.201 5.04995 31.4441 4.963 31.6515 4.85416L31.6798 5.41176C31.5013 5.49188 31.1798 5.57143 30.9154 5.57143C29.8291 5.57143 29.3008 4.75305 29.3008 3.71018C29.3008 2.51545 29.9153 1.77698 30.9296 1.77698C31.1798 1.77698 31.4585 1.8278 31.6515 1.92194L31.6226 2.47212Z" fill="#1C63B7"/>
<path d="M32.3008 0.0901489H32.9008V2.33495H32.9152C33.0722 2.02365 33.387 1.77734 33.8083 1.77734C34.4441 1.77734 34.873 2.14658 34.873 2.95746V5.52096H34.2726V3.13894C34.2726 2.55202 34.0584 2.29874 33.6726 2.29874C33.2011 2.29874 32.9008 2.63154 32.9008 3.29799V5.52096H32.3008V0.0901489Z" fill="#1C63B7"/>
<path d="M37.6288 3.71018C37.522 3.69556 37.3725 3.69556 37.2078 3.69556C36.5007 3.69556 36.1635 4.03609 36.1635 4.46334C36.1635 4.85416 36.3647 5.10797 36.7792 5.10797C37.3008 5.10797 37.6288 4.68072 37.6288 4.17363V3.71018ZM35.8847 2.081C36.1856 1.88574 36.5582 1.77698 36.9149 1.77698C37.4503 1.77698 37.7723 2.00867 37.8864 2.1244C38.0437 2.28376 38.2015 2.50825 38.2015 3.02973V4.95581C38.2015 5.17316 38.2153 5.39024 38.2295 5.52059H37.6863L37.651 5.02095H37.6362C37.4725 5.30356 37.1719 5.57143 36.6149 5.57143C36.0145 5.57143 35.5635 5.2165 35.5635 4.50674C35.5635 3.7897 36.0278 3.26141 37.2795 3.26141H37.6288V3.09456C37.6288 2.81954 37.6085 2.66049 37.4935 2.50113C37.3725 2.33458 37.1365 2.26937 36.8863 2.26937C36.5146 2.26937 36.1576 2.4213 35.9496 2.65299L35.8847 2.081Z" fill="#1C63B7"/>
<path d="M39.3203 2.32024H38.7412V1.82816H39.3203V1.00266C39.3203 0.401663 39.5917 0.00311279 40.2272 0.00311279C40.3918 0.00311279 40.5638 0.0249266 40.6992 0.0611301V0.582529C40.627 0.52451 40.4986 0.495807 40.3558 0.495807C40.02 0.495807 39.9207 0.68364 39.9207 1.05349V1.82816H40.5767V2.32024H39.9207V5.52095H39.3203V2.32024Z" fill="#1C63B7"/>
<path d="M42.9138 5.47722C42.7704 5.52781 42.5698 5.57147 42.4061 5.57147C41.8561 5.57147 41.5623 5.34688 41.5623 4.69514V2.31992H40.9844V1.82783H41.5623V1.07467L42.1627 0.893494V1.82783H42.9138V2.31992H42.1627V4.49958C42.1627 4.91963 42.2703 5.07899 42.542 5.07899C42.6922 5.07899 42.7985 5.03567 42.9138 4.98485V5.47722Z" fill="#1C63B7"/>
<path d="M43.5264 0.0901489H44.1262V5.52096H43.5264V0.0901489Z" fill="#1C63B7"/>
<path d="M45.0973 1.82815H45.6967V5.52094H45.0973V1.82815ZM45.7266 0.307434V1.03136H45.0684V0.307434H45.7266Z" fill="#1C63B7"/>
<path d="M48.7765 2.47212C48.5694 2.35609 48.3625 2.29838 48.0841 2.29838C47.4976 2.29838 47.084 2.71131 47.084 3.71018C47.084 4.56499 47.4837 5.04995 48.0693 5.04995C48.3555 5.04995 48.598 4.963 48.8054 4.85416L48.8334 5.41176C48.6549 5.49188 48.3334 5.57143 48.0693 5.57143C46.9837 5.57143 46.4541 4.75305 46.4541 3.71018C46.4541 2.51545 47.0689 1.77698 48.0841 1.77698C48.3334 1.77698 48.6118 1.8278 48.8054 1.92194L48.7765 2.47212Z" fill="#1C63B7"/>
<path d="M49.4541 0.0901489H50.0538V2.33495H50.0678C50.2255 2.02365 50.5398 1.77734 50.9616 1.77734C51.5973 1.77734 52.0262 2.14658 52.0262 2.95746V5.52096H51.4257V3.13894C51.4257 2.55202 51.2109 2.29874 50.8261 2.29874C50.3542 2.29874 50.0538 2.63154 50.0538 3.29799V5.52096H49.4541V0.0901489Z" fill="#1C63B7"/>
<path d="M54.8463 3.39176C54.8463 2.62429 54.611 2.24036 54.1315 2.24036C53.7456 2.24036 53.4027 2.53007 53.3877 3.39176H54.8463ZM53.3877 3.85522C53.3877 4.70973 53.7172 5.10797 54.3818 5.10797C54.6813 5.10797 55.0108 4.95581 55.2167 4.80387L55.2467 5.35404C54.9606 5.49188 54.5887 5.57143 54.2246 5.57143C53.2594 5.57143 52.7598 4.83258 52.7598 3.67405C52.7598 2.51545 53.2594 1.77698 54.1672 1.77698C54.9886 1.77698 55.4453 2.44342 55.4453 3.52931V3.85522H53.3877Z" fill="#1C63B7"/>
<path d="M57.7695 0.466553H59.9983V1.01696H58.3975V2.62463H59.9202V3.17503H58.3975V5.52093H57.7695V0.466553Z" fill="#1C63B7"/>
<path d="M60.7541 1.82815H61.3531V5.52094H60.7541V1.82815ZM61.3825 0.307434V1.03136H60.7246V0.307434H61.3825Z" fill="#1C63B7"/>
<path d="M62.2945 2.62465C62.2945 2.35645 62.2738 2.08856 62.2666 1.82817H62.8449L62.8666 2.37827H62.8816C63.0735 1.95821 63.3818 1.77734 63.8023 1.77734C64.438 1.77734 64.8668 2.14658 64.8668 2.95746V5.52096H64.2668V3.13894C64.2668 2.55202 64.0526 2.29874 63.6663 2.29874C63.1956 2.29874 62.895 2.63154 62.895 3.29799V5.52096H62.2945V2.62465Z" fill="#1C63B7"/>
<path d="M67.6249 3.71018C67.5168 3.69556 67.3668 3.69556 67.2028 3.69556C66.4947 3.69556 66.1601 4.03609 66.1601 4.46334C66.1601 4.85416 66.3592 5.10797 66.7735 5.10797C67.296 5.10797 67.6249 4.68072 67.6249 4.17363V3.71018ZM65.8813 2.081C66.1808 1.88574 66.5522 1.77698 66.9096 1.77698C67.4449 1.77698 67.7661 2.00867 67.8815 2.1244C68.0392 2.28376 68.1954 2.50825 68.1954 3.02973V4.95581C68.1954 5.17316 68.2104 5.39024 68.2239 5.52059H67.6808L67.6456 5.02095H67.6306C67.4666 5.30356 67.1677 5.57143 66.6101 5.57143C66.0096 5.57143 65.5596 5.2165 65.5596 4.50674C65.5596 3.7897 66.0241 3.26141 67.2737 3.26141H67.6249V3.09456C67.6249 2.81954 67.6027 2.66049 67.4889 2.50113C67.3668 2.33458 67.1304 2.26937 66.8811 2.26937C66.5097 2.26937 66.1528 2.4213 65.9444 2.65299L65.8813 2.081Z" fill="#1C63B7"/>
<path d="M69.0812 2.62465C69.0812 2.35645 69.059 2.08856 69.0518 1.82817H69.6316L69.6523 2.37827H69.6668C69.8602 1.95821 70.1669 1.77734 70.589 1.77734C71.2247 1.77734 71.6525 2.14658 71.6525 2.95746V5.52096H71.0519V3.13894C71.0519 2.55202 70.8378 2.29874 70.453 2.29874C69.9812 2.29874 69.6802 2.63154 69.6802 3.29799V5.52096H69.0812V2.62465Z" fill="#1C63B7"/>
<path d="M74.6082 1.82812V2.37823L72.922 4.99945H74.645V5.52091H72.3086V4.97044L73.9943 2.34952H72.366V1.82812H74.6082Z" fill="#1C63B7"/>
<path d="M79.0801 5.31078C78.7863 5.4193 78.2861 5.57147 77.8439 5.57147C76.2637 5.57147 75.6006 4.35484 75.6006 2.98636C75.6006 1.4077 76.5078 0.415649 77.8066 0.415649C78.2364 0.415649 78.6358 0.473669 78.9797 0.639918V1.27735C78.6006 1.08186 78.179 0.965827 77.8144 0.965827C77.0002 0.965827 76.257 1.62477 76.257 2.85601C76.257 4.15905 76.7711 5.02098 77.8573 5.02098C78.0575 5.02098 78.314 4.97015 78.4795 4.88351V3.29046H77.6437V2.74005H79.0801V5.31078Z" fill="#1C63B7"/>
<path d="M80.0846 2.62465C80.0846 2.35645 80.0644 2.08856 80.0566 1.82817H80.6354L80.6572 2.40728H80.6701C80.8635 1.95821 81.1708 1.77734 81.7077 1.77734V2.37827C81.6353 2.36396 81.5566 2.35645 81.4791 2.35645C81.0146 2.35645 80.6851 2.7622 80.6851 3.56588V5.52096H80.0846V2.62465Z" fill="#1C63B7"/>
<path d="M84.8564 4.72413C84.8564 4.99226 84.8776 5.26018 84.8854 5.52061H84.3066L84.2849 4.97014H84.2714C84.078 5.39026 83.7713 5.57145 83.3492 5.57145C82.714 5.57145 82.2842 5.20188 82.2842 4.39072V1.82782H82.8847V4.20986C82.8847 4.79677 83.0983 5.04997 83.4852 5.04997C83.9569 5.04997 84.2569 4.71663 84.2569 4.0508V1.82782H84.8564V4.72413Z" fill="#1C63B7"/>
<path d="M87.1494 5.07914C87.6992 5.07914 87.948 4.60107 87.948 3.67423C87.948 2.74732 87.6992 2.26955 87.1494 2.26955C86.5985 2.26955 86.3477 2.74732 86.3477 3.67423C86.3477 4.60107 86.5985 5.07914 87.1494 5.07914ZM85.7477 2.50843C85.7477 2.28394 85.727 2.05217 85.7197 1.82798H86.298L86.3197 2.37089H86.3342C86.4904 2.08118 86.7625 1.77716 87.2921 1.77716C88.0411 1.77716 88.5485 2.39959 88.5485 3.67423C88.5485 4.94849 88.0411 5.57161 87.2921 5.57161C86.8773 5.57161 86.6063 5.40506 86.3632 5.01401H86.3477V7.0848H85.7477V2.50843Z" fill="#1C63B7"/>
<path d="M90.6758 5.07914C91.2256 5.07914 91.4764 4.60107 91.4764 3.67423C91.4764 2.74732 91.2256 2.26955 90.6758 2.26955C90.1254 2.26955 89.8761 2.74732 89.8761 3.67423C89.8761 4.60107 90.1254 5.07914 90.6758 5.07914ZM89.2756 2.50843C89.2756 2.28394 89.2539 2.05217 89.2461 1.82798H89.8259L89.8466 2.37089H89.8611C90.0188 2.08118 90.2904 1.77716 90.8185 1.77716C91.569 1.77716 92.077 2.39959 92.077 3.67423C92.077 4.94849 91.569 5.57161 90.8185 5.57161C90.4037 5.57161 90.1326 5.40506 89.889 5.01401H89.8761V7.0848H89.2756V2.50843Z" fill="#1C63B7"/>
<path d="M94.7546 3.39176C94.7546 2.62429 94.5182 2.24036 94.0392 2.24036C93.6544 2.24036 93.3104 2.53007 93.297 3.39176H94.7546ZM93.297 3.85522C93.297 4.70973 93.6265 5.10797 94.2901 5.10797C94.5891 5.10797 94.9185 4.95581 95.126 4.80387L95.1539 5.35404C94.8679 5.49188 94.4965 5.57143 94.1323 5.57143C93.1687 5.57143 92.667 4.83258 92.667 3.67405C92.667 2.51545 93.1687 1.77698 94.0754 1.77698C94.8973 1.77698 95.3551 2.44342 95.3551 3.52931V3.85522H93.297Z" fill="#1C63B7"/>
<path d="M119.998 13.4422H100.28V-0.00238037H119.998V13.4422Z" fill="white"/>
<path d="M119.997 13.4422V11.0787H112.481C112.276 12.164 112.104 13.0834 112.036 13.4422H119.997Z" fill="#F25C19"/>
<path d="M100.28 11.0787V13.4422H108.185L107.658 11.0787H100.28Z" fill="#F25C19"/>
<path d="M104.166 5.49643L103.591 3.05524H108.497L110.122 10.2358L111.158 5.57422C111.663 3.53507 111.854 3.05524 114.696 3.05524C115.313 3.05524 116.742 3.05524 116.742 3.05524C116.742 3.05524 116.329 4.9344 115.816 6.97315C115.62 7.76608 113.91 7.67039 113.997 6.93281C114.006 6.85657 114.086 6.31093 114.15 5.92222C114.244 5.36101 113.595 5.29222 113.48 5.84598C113.396 6.24214 113.02 8.23403 112.67 10.0848H119.998V-0.00219727H100.28V10.0848H107.436L106.417 5.50098L104.166 5.49643Z" fill="#1C63B7"/>
</g>
<defs>
<clipPath id="clip0_327_884">
<rect width="120" height="13.4483" fill="white"/>
</clipPath>
</defs>
</svg>
