<svg width="50" height="34" viewBox="0 0 50 34" fill="none" xmlns="http://www.w3.org/2000/svg">
<path d="M49.2944 33.6115H0V0H49.2944V33.6115Z" fill="white"/>
<path d="M49.2933 33.6115V27.7027H30.5045C29.9911 30.416 29.5605 32.7145 29.3911 33.6115H49.2933Z" fill="#F25C19"/>
<path d="M0 27.7027V33.6115H19.7612L18.4435 27.7027H0Z" fill="#F25C19"/>
<path d="M9.71379 13.747L8.27586 7.64401H20.5422L24.6052 25.5953L27.194 13.9415C28.456 8.84361 28.9345 7.64401 36.0401 7.64401C37.5828 7.64401 41.1543 7.64401 41.1543 7.64401C41.1543 7.64401 40.1224 12.3419 38.8397 17.4388C38.3496 19.4211 34.0746 19.1819 34.2918 17.3379C34.3138 17.1473 34.5142 15.7832 34.6733 14.8115C34.9086 13.4085 33.2858 13.2365 32.9987 14.6209C32.7892 15.6113 31.8504 20.591 30.9737 25.2179H49.2944V0.000427246H0V25.2179H17.8901L15.3414 13.7584L9.71379 13.747Z" fill="#1C63B7"/>
</svg>
