<svg width="120" height="14" viewBox="0 0 120 14" fill="none" xmlns="http://www.w3.org/2000/svg">
<g clip-path="url(#clip0_666_843)">
<path d="M12.9048 8.89514H13.5907L14.748 13.0167H14.7625L15.9841 8.89514H16.6131L15.0484 13.9495H14.4197L12.9048 8.89514Z" fill="white"/>
<path d="M18.2113 13.5082C18.783 13.5082 19.0474 13.0298 19.0474 12.103C19.0474 11.1761 18.783 10.6992 18.2113 10.6992C17.6398 10.6992 17.3752 11.1761 17.3752 12.103C17.3752 13.0298 17.6398 13.5082 18.2113 13.5082ZM18.2113 10.2059C19.1759 10.2059 19.676 10.9444 19.676 12.103C19.676 13.2615 19.1759 14 18.2113 14C17.2468 14 16.7468 13.2615 16.7468 12.103C16.7468 10.9444 17.2468 10.2059 18.2113 10.2059Z" fill="white"/>
<path d="M20.4534 8.51984H21.0535V13.9495H20.4534V8.51984Z" fill="white"/>
<path d="M23.8323 10.257H24.5327L23.1036 11.9074L24.6607 13.9495H23.9181L22.5962 12.0898H22.5817V13.9495H21.9817V8.51984H22.5817V11.7415L23.8323 10.257Z" fill="white"/>
<path d="M25.1595 13.2331C25.4309 13.3991 25.7166 13.5082 26.0168 13.5082C26.4741 13.5082 26.7095 13.269 26.7095 12.9865C26.7095 12.7338 26.5809 12.5589 26.2455 12.4079L25.8454 12.227C25.3236 11.9879 25.1306 11.7486 25.1306 11.2778C25.1306 10.6693 25.5953 10.2059 26.3024 10.2059C26.6024 10.2059 26.8667 10.2567 27.0738 10.336L27.0455 10.8576C26.8597 10.771 26.6024 10.6992 26.331 10.6992C25.938 10.6992 25.7309 10.916 25.7309 11.206C25.7309 11.502 25.9451 11.6694 26.3455 11.8279L26.5597 11.9146C27.0025 12.0955 27.2813 12.4005 27.2813 12.8564C27.2813 13.4933 26.9452 14 26.1095 14C25.7309 14 25.3878 13.9208 25.1235 13.7833L25.1595 13.2331Z" fill="white"/>
<path d="M29.3168 13.5082C29.867 13.5082 30.1169 13.0298 30.1169 12.1029C30.1169 11.1761 29.867 10.6992 29.3168 10.6992C28.7666 10.6992 28.5164 11.1761 28.5164 12.1029C28.5164 13.0298 28.7666 13.5082 29.3168 13.5082ZM27.9164 8.51953H28.5164V10.7635H28.5309C28.7736 10.3733 29.045 10.2058 29.4595 10.2058C30.2097 10.2058 30.7172 10.8292 30.7172 12.1029C30.7172 13.3781 30.2097 14 29.4595 14C28.9308 14 28.6595 13.6965 28.5025 13.4065H28.4881L28.4665 13.9492H27.8877C27.8951 13.7249 27.9164 13.4932 27.9164 13.269V8.51953Z" fill="white"/>
<path d="M33.3515 12.1389C33.2445 12.1254 33.0943 12.1254 32.93 12.1254C32.2229 12.1254 31.8869 12.4647 31.8869 12.8923C31.8869 13.284 32.0871 13.5366 32.5014 13.5366C33.0232 13.5366 33.3515 13.1105 33.3515 12.6023V12.1389ZM31.6081 10.5108C31.9084 10.315 32.2801 10.2059 32.6371 10.2059C33.1728 10.2059 33.4944 10.4376 33.6088 10.5542C33.7661 10.7127 33.9233 10.9369 33.9233 11.4586V13.3856C33.9233 13.6024 33.9375 13.8192 33.9517 13.9492H33.4088L33.3731 13.4499H33.3587C33.1946 13.7325 32.8943 14 32.3373 14C31.737 14 31.2871 13.6457 31.2871 12.9357C31.2871 12.2195 31.7511 11.6904 33.0017 11.6904H33.3515V11.5244C33.3515 11.2494 33.3303 11.0894 33.2159 10.9309C33.0943 10.7635 32.8586 10.6992 32.6088 10.6992C32.237 10.6992 31.8797 10.8502 31.6727 11.0819L31.6081 10.5108Z" fill="white"/>
<path d="M34.808 11.0538C34.808 10.7862 34.7867 10.5171 34.7793 10.257H35.3581L35.3797 10.8072H35.3941C35.5868 10.3871 35.8942 10.2062 36.3155 10.2062C36.9512 10.2062 37.3801 10.5754 37.3801 11.3872V13.9495H36.7798V11.5681C36.7798 10.9806 36.5656 10.7279 36.1798 10.7279C35.7083 10.7279 35.408 11.0613 35.408 11.7266V13.9495H34.808V11.0538Z" fill="white"/>
<path d="M40.1365 10.257H40.8366L39.4075 11.9074L40.9652 13.9495H40.2217L38.9001 12.0898H38.8859V13.9495H38.2859V8.51984H38.8859V11.7415L40.1365 10.257Z" fill="white"/>
<path d="M43.2356 11.8204C43.2356 11.0535 42.9999 10.6693 42.5208 10.6693C42.1348 10.6693 41.792 10.9593 41.7782 11.8204H43.2356ZM41.7782 12.2838C41.7782 13.1389 42.1065 13.5366 42.7711 13.5366C43.0709 13.5366 43.3999 13.3856 43.6073 13.2331L43.6356 13.7833C43.3497 13.9208 42.978 14 42.6136 14C41.6493 14 41.1489 13.2615 41.1489 12.103C41.1489 10.9444 41.6493 10.2059 42.5564 10.2059C43.3783 10.2059 43.8359 10.8726 43.8359 11.958V12.2838H41.7782Z" fill="white"/>
<path d="M44.5479 11.0538C44.5479 10.7862 44.5264 10.5171 44.519 10.257H45.0981L45.1194 10.8072H45.1338C45.3268 10.3871 45.6339 10.2062 46.0555 10.2062C46.6912 10.2062 47.1201 10.5754 47.1201 11.3872V13.9495H46.5198V11.5681C46.5198 10.9806 46.3053 10.7279 45.9197 10.7279C45.448 10.7279 45.148 11.0613 45.148 11.7266V13.9495H44.5479V11.0538Z" fill="white"/>
<path d="M49.8476 11.1405H50.3338C51.0049 11.1405 51.2625 10.692 51.2625 10.2495C51.2625 9.68445 50.8982 9.41688 50.3476 9.41688H49.8476V11.1405ZM49.2178 8.89514H50.4975C51.0271 8.89514 51.3192 9.02668 51.5477 9.24345C51.8059 9.49012 51.9197 9.83693 51.9197 10.2062C51.9197 10.7429 51.6702 11.2572 50.9341 11.4156V11.4306C51.2336 11.4888 51.3766 11.6324 51.477 11.9224L52.1768 13.9495H51.4976L50.9267 12.2408C50.7837 11.8208 50.6052 11.6623 50.1332 11.6623H49.8476V13.9495H49.2178V8.89514Z" fill="white"/>
<path d="M54.7335 12.1389C54.6265 12.1254 54.4759 12.1254 54.312 12.1254C53.6039 12.1254 53.2682 12.4647 53.2682 12.8923C53.2682 13.284 53.4684 13.5366 53.8827 13.5366C54.4051 13.5366 54.7335 13.1105 54.7335 12.6023V12.1389ZM52.9899 10.5108C53.2899 10.315 53.6613 10.2059 54.0187 10.2059C54.554 10.2059 54.8758 10.4376 54.9906 10.5542C55.1473 10.7127 55.3046 10.9369 55.3046 11.4586V13.3856C55.3046 13.6024 55.3196 13.8192 55.3325 13.9492H54.7899L54.7547 13.4499H54.7397C54.5763 13.7325 54.2758 14 53.7192 14C53.1187 14 52.6687 13.6457 52.6687 12.9357C52.6687 12.2195 53.1327 11.6904 54.3828 11.6904H54.7335V11.5244C54.7335 11.2494 54.7118 11.0894 54.5975 10.9309C54.4759 10.7635 54.2396 10.6992 53.9903 10.6992C53.6189 10.6992 53.262 10.8502 53.0535 11.0819L52.9899 10.5108Z" fill="white"/>
<path d="M56.218 10.257H56.8174V13.9495H56.218V10.257ZM56.8464 8.73663V9.4602H56.1885V8.73663H56.8464Z" fill="white"/>
<path d="M58.0241 10.7488H57.4453V10.257H58.0241V9.43178C58.0241 8.8308 58.2962 8.43164 58.9319 8.43164C59.0958 8.43164 59.2676 8.45409 59.4036 8.48993V9.01168C59.3317 8.95338 59.2034 8.92499 59.0601 8.92499C58.7239 8.92499 58.6241 9.11336 58.6241 9.48262V10.257H59.2815V10.7488H58.6241V13.9495H58.0241V10.7488Z" fill="white"/>
<path d="M60.2602 10.7488H59.6819V10.257H60.2602V9.43178C60.2602 8.8308 60.5312 8.43164 61.1674 8.43164C61.3324 8.43164 61.5036 8.45409 61.6391 8.48993V9.01168C61.5667 8.95338 61.4384 8.92499 61.2957 8.92499C60.9605 8.92499 60.8602 9.11336 60.8602 9.48262V10.257H61.5165V10.7488H60.8602V13.9495H60.2602V10.7488Z" fill="white"/>
<path d="M63.9388 11.8204C63.9388 11.0535 63.7024 10.6693 63.2245 10.6693C62.8381 10.6693 62.4947 10.9593 62.4812 11.8204H63.9388ZM62.4812 12.2838C62.4812 13.1389 62.8102 13.5366 63.4738 13.5366C63.7733 13.5366 64.1023 13.3856 64.3102 13.2331L64.3381 13.7833C64.0521 13.9208 63.6818 14 63.3161 14C62.353 14 61.8528 13.2615 61.8528 12.103C61.8528 10.9444 62.353 10.2059 63.2602 10.2059C64.0816 10.2059 64.5388 10.8726 64.5388 11.958V12.2838H62.4812Z" fill="white"/>
<path d="M65.2794 10.257H65.8794V13.9495H65.2794V10.257ZM65.9089 8.73663V9.4602H65.251V8.73663H65.9089Z" fill="white"/>
<path d="M66.6511 13.2331C66.9227 13.3991 67.2087 13.5082 67.5082 13.5082C67.9655 13.5082 68.2018 13.269 68.2018 12.9865C68.2018 12.7338 68.0735 12.5589 67.7368 12.4079L67.3375 12.227C66.8151 11.9879 66.6217 11.7486 66.6217 11.2778C66.6217 10.6693 67.0867 10.2059 67.7948 10.2059C68.0937 10.2059 68.358 10.2567 68.566 10.336L68.538 10.8576C68.3523 10.771 68.0937 10.6992 67.8227 10.6992C67.4301 10.6992 67.2222 10.916 67.2222 11.206C67.2222 11.502 67.4373 11.6694 67.8372 11.8279L68.0513 11.9146C68.4935 12.0955 68.7723 12.4005 68.7723 12.8564C68.7723 13.4933 68.4377 14 67.6013 14C67.2222 14 66.8798 13.9208 66.616 13.7833L66.6511 13.2331Z" fill="white"/>
<path d="M71.4154 11.8204C71.4154 11.0535 71.1796 10.6693 70.7001 10.6693C70.3153 10.6693 69.9713 10.9593 69.9584 11.8204H71.4154ZM69.9584 12.2838C69.9584 13.1389 70.2858 13.5366 70.951 13.5366C71.2504 13.5366 71.5794 13.3856 71.7873 13.2331L71.8153 13.7833C71.5292 13.9208 71.1573 14 70.7932 14C69.8285 14 69.3284 13.2615 69.3284 12.103C69.3284 10.9444 69.8285 10.2059 70.7358 10.2059C71.5587 10.2059 72.016 10.8726 72.016 11.958V12.2838H69.9584Z" fill="white"/>
<path d="M72.7292 11.0538C72.7292 10.7862 72.7069 10.5171 72.6997 10.257H73.279L73.2997 10.8072H73.3147C73.5071 10.3871 73.8138 10.2062 74.2359 10.2062C74.8716 10.2062 75.3009 10.5754 75.3009 11.3872V13.9495H74.7009V11.5681C74.7009 10.9806 74.4868 10.7279 74.1004 10.7279C73.6282 10.7279 73.3287 11.0613 73.3287 11.7266V13.9495H72.7292V11.0538Z" fill="white"/>
<path d="M77.5703 13.5082C78.1201 13.5082 78.3699 13.0298 78.3699 12.1029C78.3699 11.1761 78.1201 10.6992 77.5703 10.6992C77.0199 10.6992 76.7691 11.1761 76.7691 12.1029C76.7691 13.0298 77.0199 13.5082 77.5703 13.5082ZM76.1701 8.51953H76.7691V10.7635H76.7841C77.0272 10.3733 77.2992 10.2058 77.713 10.2058C78.463 10.2058 78.9699 10.8292 78.9699 12.1029C78.9699 13.3781 78.463 14 77.713 14C77.1839 14 76.9123 13.6965 76.7561 13.4065H76.7411L76.7205 13.9492H76.1406C76.1484 13.7249 76.1701 13.4932 76.1701 13.269V8.51953Z" fill="white"/>
<path d="M81.6066 12.1389C81.4985 12.1254 81.348 12.1254 81.1846 12.1254C80.4765 12.1254 80.1413 12.4647 80.1413 12.8923C80.1413 13.284 80.3409 13.5366 80.7553 13.5366C81.2771 13.5366 81.6066 13.1105 81.6066 12.6023V12.1389ZM79.8625 10.5108C80.1625 10.315 80.5339 10.2059 80.8908 10.2059C81.4261 10.2059 81.7478 10.4376 81.8632 10.5542C82.0209 10.7127 82.1777 10.9369 82.1777 11.4586V13.3856C82.1777 13.6024 82.1916 13.8192 82.2056 13.9492H81.6625L81.6268 13.4499H81.6123C81.4489 13.7325 81.1489 14 80.5913 14C79.9913 14 79.5408 13.6457 79.5408 12.9357C79.5408 12.2195 80.0063 11.6904 81.2554 11.6904H81.6066V11.5244C81.6066 11.2494 81.5839 11.0894 81.4706 10.9309C81.348 10.7635 81.1116 10.6992 80.8628 10.6992C80.4909 10.6992 80.134 10.8502 79.9261 11.0819L79.8625 10.5108Z" fill="white"/>
<path d="M83.0602 11.0538C83.0602 10.7862 83.04 10.5171 83.0322 10.257H83.611L83.6327 10.8072H83.6477C83.8396 10.3871 84.1479 10.2062 84.5684 10.2062C85.2036 10.2062 85.6334 10.5754 85.6334 11.3872V13.9495H85.0329V11.5681C85.0329 10.9806 84.8193 10.7279 84.4324 10.7279C83.9622 10.7279 83.6607 11.0613 83.6607 11.7266V13.9495H83.0602V11.0538Z" fill="white"/>
<path d="M88.3897 10.257H89.0891L87.661 11.9074L89.2179 13.9495H88.4751L87.1535 12.0898H87.1391V13.9495H86.5391V8.51984H87.1391V11.7415L88.3897 10.257Z" fill="white"/>
<path d="M91.4897 11.8204C91.4897 11.0535 91.2533 10.6693 90.7733 10.6693C90.389 10.6693 90.0456 10.9593 90.0316 11.8204H91.4897ZM90.0316 12.2838C90.0316 13.1389 90.3611 13.5366 91.0242 13.5366C91.3242 13.5366 91.6526 13.3856 91.8611 13.2331L91.889 13.7833C91.603 13.9208 91.2311 14 90.8664 14C89.9033 14 89.4021 13.2615 89.4021 12.103C89.4021 10.9444 89.9033 10.2059 90.8106 10.2059C91.6324 10.2059 92.0897 10.8726 92.0897 11.958V12.2838H90.0316Z" fill="white"/>
<path d="M92.8024 11.0538C92.8024 10.7862 92.7807 10.5171 92.7729 10.257H93.3523L93.3735 10.8072H93.388C93.5814 10.3871 93.8876 10.2062 94.3102 10.2062C94.9459 10.2062 95.3747 10.5754 95.3747 11.3872V13.9495H94.7747V11.5681C94.7747 10.9806 94.5595 10.7279 94.1742 10.7279C93.7019 10.7279 93.403 11.0613 93.403 11.7266V13.9495H92.8024V11.0538Z" fill="white"/>
<path d="M3.4797 5.86254C3.18646 5.97105 2.68641 6.12323 2.24359 6.12323C0.66467 6.12323 0 4.9066 0 3.53812C0 1.95946 0.907464 0.967407 2.2079 0.967407C2.63626 0.967407 3.03659 1.02543 3.3794 1.19168V1.82911C3.0009 1.63362 2.57932 1.51758 2.21497 1.51758C1.40044 1.51758 0.657 2.17653 0.657 3.40777C0.657 4.7108 1.17209 5.57274 2.25775 5.57274C2.45778 5.57274 2.71503 5.52191 2.87935 5.43526V3.84222H2.04328V3.29181H3.4797V5.86254Z" fill="white"/>
<path d="M6.40745 3.94352C6.40745 3.17604 6.17174 2.79212 5.69262 2.79212C5.30701 2.79212 4.96394 3.08182 4.94978 3.94352H6.40745ZM4.94978 4.40698C4.94978 5.26148 5.27841 5.65973 5.94307 5.65973C6.24281 5.65973 6.57177 5.50757 6.77919 5.35563L6.80748 5.9058C6.5216 6.04364 6.14991 6.12319 5.78557 6.12319C4.82114 6.12319 4.3208 5.38433 4.3208 4.22581C4.3208 3.06721 4.82114 2.32874 5.72831 2.32874C6.55026 2.32874 7.00781 2.99518 7.00781 4.08107V4.40698H4.94978Z" fill="white"/>
<path d="M7.71988 3.17641C7.71988 2.90821 7.69831 2.64032 7.69092 2.37993H8.27007L8.29128 2.93003H8.30576C8.49838 2.50997 8.80583 2.3291 9.22738 2.3291C9.86318 2.3291 10.2918 2.69833 10.2918 3.50921V6.07271H9.6914V3.69069C9.6914 3.10377 9.47721 2.8505 9.09166 2.8505C8.61994 2.8505 8.31963 3.1833 8.31963 3.84974V6.07271H7.71988V3.17641Z" fill="white"/>
<path d="M12.4981 5.63072C13.0696 5.63072 13.3342 5.15264 13.3342 4.22581C13.3342 3.29889 13.0696 2.82112 12.4981 2.82112C11.9264 2.82112 11.6621 3.29889 11.6621 4.22581C11.6621 5.15264 11.9264 5.63072 12.4981 5.63072ZM12.4981 2.32874C13.4629 2.32874 13.9629 3.06721 13.9629 4.22581C13.9629 5.38433 13.4629 6.12319 12.4981 6.12319C11.5338 6.12319 11.0337 5.38433 11.0337 4.22581C11.0337 3.06721 11.5338 2.32874 12.4981 2.32874Z" fill="white"/>
<path d="M14.5466 5.35563C14.8181 5.52188 15.1036 5.63072 15.404 5.63072C15.8613 5.63072 16.097 5.39183 16.097 5.10932C16.097 4.85574 15.9684 4.68207 15.6326 4.52983L15.2325 4.34896C14.7106 4.10977 14.5177 3.87119 14.5177 3.40061C14.5177 2.79212 14.9821 2.32874 15.6898 2.32874C15.9896 2.32874 16.2539 2.37956 16.4613 2.45909L16.433 2.98048C16.2471 2.89353 15.9896 2.82112 15.7182 2.82112C15.3252 2.82112 15.1181 3.0385 15.1181 3.3279C15.1181 3.62481 15.3326 3.79136 15.7326 3.95072L15.9467 4.03774C16.3897 4.21861 16.6684 4.52301 16.6684 4.97897C16.6684 5.6161 16.3327 6.12319 15.4968 6.12319C15.1181 6.12319 14.7753 6.04364 14.511 5.9058L14.5466 5.35563Z" fill="white"/>
<path d="M17.2391 5.35563C17.5105 5.52188 17.7964 5.63072 18.0963 5.63072C18.5536 5.63072 18.7893 5.39183 18.7893 5.10932C18.7893 4.85574 18.6607 4.68207 18.3251 4.52983L17.925 4.34896C17.4031 4.10977 17.2105 3.87119 17.2105 3.40061C17.2105 2.79212 17.6748 2.32874 18.3822 2.32874C18.682 2.32874 18.9463 2.37956 19.1537 2.45909L19.1254 2.98048C18.9395 2.89353 18.682 2.82112 18.4105 2.82112C18.0179 2.82112 17.8105 3.0385 17.8105 3.3279C17.8105 3.62481 18.025 3.79136 18.425 3.95072L18.6392 4.03774C19.082 4.21861 19.3608 4.52301 19.3608 4.97897C19.3608 5.6161 19.025 6.12319 18.189 6.12319C17.8105 6.12319 17.4677 6.04364 17.2034 5.9058L17.2391 5.35563Z" fill="white"/>
<path d="M22.0105 3.94352C22.0105 3.17604 21.7747 2.79212 21.2957 2.79212C20.9097 2.79212 20.5669 3.08182 20.5531 3.94352H22.0105ZM20.5531 4.40698C20.5531 5.26148 20.8814 5.65973 21.5461 5.65973C21.8458 5.65973 22.1748 5.50757 22.3819 5.35563L22.4105 5.9058C22.1246 6.04364 21.7529 6.12319 21.3886 6.12319C20.4242 6.12319 19.9238 5.38433 19.9238 4.22581C19.9238 3.06721 20.4242 2.32874 21.3313 2.32874C22.1532 2.32874 22.6108 2.99518 22.6108 4.08107V4.40698H20.5531Z" fill="white"/>
<path d="M23.3241 3.17641C23.3241 2.90821 23.3026 2.64032 23.2952 2.37993H23.8743L23.8956 2.93003H23.91C24.103 2.50997 24.4101 2.3291 24.8316 2.3291C25.4674 2.3291 25.8964 2.69833 25.8964 3.50921V6.07271H25.296V3.69069C25.296 3.10377 25.0816 2.8505 24.6959 2.8505C24.2242 2.8505 23.9242 3.1833 23.9242 3.84974V6.07271H23.3241V3.17641Z" fill="white"/>
<path d="M26.6302 5.35563C26.9016 5.52188 27.1874 5.63072 27.4875 5.63072C27.9451 5.63072 28.1805 5.39183 28.1805 5.10932C28.1805 4.85574 28.0519 4.68207 27.7161 4.52983L27.3161 4.34896C26.7942 4.10977 26.6016 3.87119 26.6016 3.40061C26.6016 2.79212 27.0656 2.32874 27.7733 2.32874C28.0734 2.32874 28.3377 2.37956 28.5448 2.45909L28.5165 2.98048C28.3307 2.89353 28.0734 2.82112 27.8017 2.82112C27.4087 2.82112 27.2019 3.0385 27.2019 3.3279C27.2019 3.62481 27.4161 3.79136 27.8162 3.95072L28.0307 4.03774C28.4735 4.21861 28.7522 4.52301 28.7522 4.97897C28.7522 5.6161 28.4162 6.12319 27.5808 6.12319C27.2019 6.12319 26.8588 6.04364 26.5945 5.9058L26.6302 5.35563Z" fill="white"/>
<path d="M31.6226 3.02388C31.4155 2.90784 31.2084 2.85014 30.9296 2.85014C30.3436 2.85014 29.9292 3.26307 29.9292 4.26194C29.9292 5.11674 30.3298 5.60171 30.9154 5.60171C31.201 5.60171 31.4441 5.51476 31.6515 5.40592L31.6798 5.96352C31.5013 6.04364 31.1798 6.12319 30.9154 6.12319C29.8291 6.12319 29.3008 5.30481 29.3008 4.26194C29.3008 3.06721 29.9153 2.32874 30.9296 2.32874C31.1798 2.32874 31.4585 2.37956 31.6515 2.4737L31.6226 3.02388Z" fill="white"/>
<path d="M32.3003 0.641907H32.9003V2.8867H32.9147C33.0718 2.57541 33.3866 2.3291 33.8078 2.3291C34.4436 2.3291 34.8725 2.69833 34.8725 3.50921V6.07271H34.2721V3.69069C34.2721 3.10377 34.0579 2.8505 33.6721 2.8505C33.2007 2.8505 32.9003 3.1833 32.9003 3.84974V6.07271H32.3003V0.641907Z" fill="white"/>
<path d="M37.6288 4.26194C37.522 4.24731 37.3725 4.24731 37.2078 4.24731C36.5007 4.24731 36.1635 4.58784 36.1635 5.0151C36.1635 5.40592 36.3647 5.65973 36.7792 5.65973C37.3008 5.65973 37.6288 5.23248 37.6288 4.72539V4.26194ZM35.8847 2.63275C36.1856 2.4375 36.5582 2.32874 36.9149 2.32874C37.4503 2.32874 37.7723 2.56042 37.8864 2.67616C38.0437 2.83551 38.2015 3.06001 38.2015 3.58148V5.50757C38.2015 5.72492 38.2153 5.942 38.2295 6.07235H37.6863L37.651 5.5727H37.6362C37.4725 5.85531 37.1719 6.12319 36.6149 6.12319C36.0145 6.12319 35.5635 5.76826 35.5635 5.0585C35.5635 4.34146 36.0278 3.81317 37.2795 3.81317H37.6288V3.64631C37.6288 3.3713 37.6085 3.21225 37.4935 3.05289C37.3725 2.88634 37.1365 2.82112 36.8863 2.82112C36.5146 2.82112 36.1576 2.97306 35.9496 3.20475L35.8847 2.63275Z" fill="white"/>
<path d="M39.3208 2.872H38.7417V2.37992H39.3208V1.55442C39.3208 0.953421 39.5921 0.554871 40.2277 0.554871C40.3923 0.554871 40.5643 0.576684 40.6997 0.612888V1.13429C40.6275 1.07627 40.4991 1.04757 40.3563 1.04757C40.0205 1.04757 39.9212 1.2354 39.9212 1.60525V2.37992H40.5772V2.872H39.9212V6.07271H39.3208V2.872Z" fill="white"/>
<path d="M42.9138 6.02898C42.7704 6.07957 42.5698 6.12322 42.4061 6.12322C41.8561 6.12322 41.5623 5.89864 41.5623 5.2469V2.87167H40.9844V2.37959H41.5623V1.62643L42.1627 1.44525V2.37959H42.9138V2.87167H42.1627V5.05133C42.1627 5.47139 42.2703 5.63075 42.542 5.63075C42.6922 5.63075 42.7985 5.58743 42.9138 5.5366V6.02898Z" fill="white"/>
<path d="M43.5261 0.641907H44.1259V6.07271H43.5261V0.641907Z" fill="white"/>
<path d="M45.0975 2.37991H45.697V6.0727H45.0975V2.37991ZM45.7268 0.859192V1.58312H45.0686V0.859192H45.7268Z" fill="white"/>
<path d="M48.776 3.02388C48.5689 2.90784 48.362 2.85014 48.0836 2.85014C47.4971 2.85014 47.0835 3.26307 47.0835 4.26194C47.0835 5.11674 47.4832 5.60171 48.0689 5.60171C48.355 5.60171 48.5975 5.51476 48.8049 5.40592L48.8329 5.96352C48.6544 6.04364 48.3329 6.12319 48.0689 6.12319C46.9832 6.12319 46.4536 5.30481 46.4536 4.26194C46.4536 3.06721 47.0684 2.32874 48.0836 2.32874C48.3329 2.32874 48.6113 2.37956 48.8049 2.4737L48.776 3.02388Z" fill="white"/>
<path d="M49.4541 0.641907H50.0538V2.8867H50.0678C50.2255 2.57541 50.5398 2.3291 50.9616 2.3291C51.5973 2.3291 52.0262 2.69833 52.0262 3.50921V6.07271H51.4257V3.69069C51.4257 3.10377 51.2109 2.8505 50.8261 2.8505C50.3542 2.8505 50.0538 3.1833 50.0538 3.84974V6.07271H49.4541V0.641907Z" fill="white"/>
<path d="M54.8463 3.94352C54.8463 3.17604 54.611 2.79212 54.1315 2.79212C53.7456 2.79212 53.4027 3.08182 53.3877 3.94352H54.8463ZM53.3877 4.40698C53.3877 5.26148 53.7172 5.65973 54.3818 5.65973C54.6813 5.65973 55.0108 5.50757 55.2167 5.35563L55.2467 5.9058C54.9606 6.04364 54.5887 6.12319 54.2246 6.12319C53.2594 6.12319 52.7598 5.38433 52.7598 4.22581C52.7598 3.06721 53.2594 2.32874 54.1672 2.32874C54.9886 2.32874 55.4453 2.99518 55.4453 4.08107V4.40698H53.3877Z" fill="white"/>
<path d="M57.7695 1.01831H59.9983V1.56872H58.3975V3.17638H59.9202V3.72679H58.3975V6.07269H57.7695V1.01831Z" fill="white"/>
<path d="M60.7536 2.37991H61.3526V6.0727H60.7536V2.37991ZM61.382 0.859192V1.58312H60.7241V0.859192H61.382Z" fill="white"/>
<path d="M62.295 3.17641C62.295 2.90821 62.2743 2.64032 62.2671 2.37993H62.8454L62.8671 2.93003H62.8821C63.074 2.50997 63.3823 2.3291 63.8028 2.3291C64.4385 2.3291 64.8673 2.69833 64.8673 3.50921V6.07271H64.2673V3.69069C64.2673 3.10377 64.0531 2.8505 63.6667 2.8505C63.1961 2.8505 62.8955 3.1833 62.8955 3.84974V6.07271H62.295V3.17641Z" fill="white"/>
<path d="M67.6247 4.26194C67.5166 4.24731 67.3666 4.24731 67.2026 4.24731C66.4945 4.24731 66.1598 4.58784 66.1598 5.0151C66.1598 5.40592 66.359 5.65973 66.7733 5.65973C67.2957 5.65973 67.6247 5.23248 67.6247 4.72539V4.26194ZM65.8811 2.63275C66.1805 2.4375 66.5519 2.32874 66.9093 2.32874C67.4447 2.32874 67.7659 2.56042 67.8812 2.67616C68.039 2.83551 68.1952 3.06001 68.1952 3.58148V5.50757C68.1952 5.72492 68.2102 5.942 68.2236 6.07235H67.6805L67.6454 5.5727H67.6304C67.4664 5.85531 67.1674 6.12319 66.6098 6.12319C66.0093 6.12319 65.5593 5.76826 65.5593 5.0585C65.5593 4.34146 66.0238 3.81317 67.2735 3.81317H67.6247V3.64631C67.6247 3.3713 67.6024 3.21225 67.4886 3.05289C67.3666 2.88634 67.1302 2.82112 66.8809 2.82112C66.5095 2.82112 66.1526 2.97306 65.9442 3.20475L65.8811 2.63275Z" fill="white"/>
<path d="M69.0812 3.17641C69.0812 2.90821 69.059 2.64032 69.0518 2.37993H69.6316L69.6523 2.93003H69.6668C69.8602 2.50997 70.1669 2.3291 70.589 2.3291C71.2247 2.3291 71.6525 2.69833 71.6525 3.50921V6.07271H71.0519V3.69069C71.0519 3.10377 70.8378 2.8505 70.453 2.8505C69.9812 2.8505 69.6802 3.1833 69.6802 3.84974V6.07271H69.0812V3.17641Z" fill="white"/>
<path d="M74.6085 2.37988V2.92998L72.9223 5.55121H74.6452V6.07267H72.3088V5.5222L73.9945 2.90128H72.3663V2.37988H74.6085Z" fill="white"/>
<path d="M79.0806 5.86254C78.7868 5.97105 78.2866 6.12323 77.8443 6.12323C76.2642 6.12323 75.6011 4.9066 75.6011 3.53812C75.6011 1.95946 76.5083 0.967407 77.8071 0.967407C78.2369 0.967407 78.6362 1.02543 78.9802 1.19168V1.82911C78.6011 1.63362 78.1795 1.51758 77.8149 1.51758C77.0007 1.51758 76.2575 2.17653 76.2575 3.40777C76.2575 4.7108 76.7716 5.57274 77.8578 5.57274C78.058 5.57274 78.3145 5.52191 78.48 5.43526V3.84222H77.6442V3.29181H79.0806V5.86254Z" fill="white"/>
<path d="M80.0851 3.17641C80.0851 2.90821 80.0649 2.64032 80.0571 2.37993H80.6359L80.6577 2.95903H80.6706C80.864 2.50997 81.1713 2.3291 81.7082 2.3291V2.93003C81.6358 2.91572 81.5571 2.90821 81.4795 2.90821C81.0151 2.90821 80.6856 3.31395 80.6856 4.11764V6.07271H80.0851V3.17641Z" fill="white"/>
<path d="M84.8559 5.27589C84.8559 5.54401 84.8771 5.81193 84.8849 6.07237H84.3061L84.2844 5.5219H84.2709C84.0775 5.94202 83.7708 6.12321 83.3487 6.12321C82.7135 6.12321 82.2837 5.75364 82.2837 4.94248V2.37958H82.8842V4.76161C82.8842 5.34853 83.0978 5.60173 83.4847 5.60173C83.9565 5.60173 84.2564 5.26839 84.2564 4.60256V2.37958H84.8559V5.27589Z" fill="white"/>
<path d="M87.1494 5.6309C87.6992 5.6309 87.948 5.15282 87.948 4.22599C87.948 3.29908 87.6992 2.82131 87.1494 2.82131C86.5985 2.82131 86.3477 3.29908 86.3477 4.22599C86.3477 5.15282 86.5985 5.6309 87.1494 5.6309ZM85.7477 3.06019C85.7477 2.8357 85.727 2.60393 85.7197 2.37974H86.298L86.3197 2.92264H86.3342C86.4904 2.63294 86.7625 2.32892 87.2921 2.32892C88.0411 2.32892 88.5485 2.95135 88.5485 4.22599C88.5485 5.50024 88.0411 6.12337 87.2921 6.12337C86.8773 6.12337 86.6063 5.95681 86.3632 5.56576H86.3477V7.63655H85.7477V3.06019Z" fill="white"/>
<path d="M90.676 5.6309C91.2258 5.6309 91.4767 5.15282 91.4767 4.22599C91.4767 3.29908 91.2258 2.82131 90.676 2.82131C90.1257 2.82131 89.8763 3.29908 89.8763 4.22599C89.8763 5.15282 90.1257 5.6309 90.676 5.6309ZM89.2758 3.06019C89.2758 2.8357 89.2541 2.60393 89.2463 2.37974H89.8262L89.8469 2.92264H89.8613C90.0191 2.63294 90.2906 2.32892 90.8187 2.32892C91.5693 2.32892 92.0772 2.95135 92.0772 4.22599C92.0772 5.50024 91.5693 6.12337 90.8187 6.12337C90.4039 6.12337 90.1329 5.95681 89.8893 5.56576H89.8763V7.63655H89.2758V3.06019Z" fill="white"/>
<path d="M94.7546 3.94352C94.7546 3.17604 94.5182 2.79212 94.0392 2.79212C93.6544 2.79212 93.3104 3.08182 93.297 3.94352H94.7546ZM93.297 4.40698C93.297 5.26148 93.6265 5.65973 94.2901 5.65973C94.5891 5.65973 94.9185 5.50757 95.126 5.35563L95.1539 5.9058C94.8679 6.04364 94.4965 6.12319 94.1323 6.12319C93.1687 6.12319 92.667 5.38433 92.667 4.22581C92.667 3.06721 93.1687 2.32874 94.0754 2.32874C94.8973 2.32874 95.3551 2.99518 95.3551 4.08107V4.40698H93.297Z" fill="white"/>
<path d="M119.998 13.994H100.28V0.549377H119.998V13.994Z" fill="white"/>
<path d="M119.997 13.994V11.6304H112.482C112.277 12.7158 112.104 13.6352 112.037 13.994H119.997Z" fill="#F25C19"/>
<path d="M100.28 11.6304V13.994H108.185L107.658 11.6304H100.28Z" fill="#F25C19"/>
<path d="M104.166 6.04819L103.591 3.60699H108.497L110.122 10.7875L111.158 6.12598C111.663 4.08683 111.854 3.60699 114.696 3.60699C115.313 3.60699 116.742 3.60699 116.742 3.60699C116.742 3.60699 116.329 5.48616 115.816 7.52491C115.62 8.31784 113.91 8.22215 113.997 7.48457C114.006 7.40832 114.086 6.86269 114.15 6.47398C114.244 5.91277 113.595 5.84398 113.48 6.39774C113.396 6.79389 113.02 8.78579 112.67 10.6365H119.998V0.549561H100.28V10.6365H107.436L106.417 6.05274L104.166 6.04819Z" fill="#1C63B7"/>
</g>
<defs>
<clipPath id="clip0_666_843">
<rect width="120" height="13.4483" fill="white" transform="translate(0 0.551758)"/>
</clipPath>
</defs>
</svg>
