<svg width="16" height="20" viewBox="0 0 16 20" fill="none" xmlns="http://www.w3.org/2000/svg">
    <title>easyCredit-Rechnung Logo</title>
    <path
    fill-rule="evenodd"
    clip-rule="evenodd"
    d="M3.5 1.75C2.80964 1.75 2.25 2.30964 2.25 3V16.5C2.25 17.1904 2.80964 17.75 3.5 17.75H8.25V14C8.25 13.0335 9.0335 12.25 10 12.25H13.75V3C13.75 2.30964 13.1904 1.75 12.5 1.75H3.5ZM12.6893 13.75H10C9.86193 13.75 9.75 13.8619 9.75 14V16.6893L12.6893 13.75ZM0.75 3C0.75 1.48122 1.98122 0.25 3.5 0.25H12.5C14.0188 0.25 15.25 1.48122 15.25 3V13C15.25 13.1989 15.171 13.3897 15.0303 13.5303L9.53033 19.0303C9.38968 19.171 9.19891 19.25 9 19.25H3.5C1.98122 19.25 0.75 18.0188 0.75 16.5V3ZM4.75 5C4.75 4.58579 5.08579 4.25 5.5 4.25H10.5C10.9142 4.25 11.25 4.58579 11.25 5C11.25 5.41421 10.9142 5.75 10.5 5.75H5.5C5.08579 5.75 4.75 5.41421 4.75 5ZM4.75 8C4.75 7.58579 5.08579 7.25 5.5 7.25H9C9.41421 7.25 9.75 7.58579 9.75 8C9.75 8.41421 9.41421 8.75 9 8.75H5.5C5.08579 8.75 4.75 8.41421 4.75 8Z"
    fill="white"
    />
</svg>