
<svg xmlns="http://www.w3.org/2000/svg" viewBox="0 0 283.5 143" xml:space="preserve"><style>.st0{fill:#0066b3}</style><g id="Ebene_1"><path class="st0" d="M12 27.7c.9-3.3 3.7-6.8 8.8-6.8 4.4 0 5.8 3.1 5.8 6.8H12zm19.4 11.1c-3.3 1.6-7.6 2.4-10.8 2.4-7.3 0-9.2-2.9-9.3-6.6h24.5c.5-2.1.9-5.1.9-6.5 0-10.5-6.8-15.1-15.9-15.1C5.3 12.9 0 25.3 0 33.3 0 42 6.2 49.1 17.8 49.1c3.5 0 7.9-.7 12.1-1.9l1.5-8.4zm73.4.4c3.1 1.3 6.4 2 9.7 2 1.9 0 6.7-.2 6.7-3.1 0-4.9-14.3-2.4-14.3-13.8 0-8.1 9.4-11.4 17.5-11.4 3 0 7.2.7 11.5 2.1l-2.5 7.8c-3.1-1.3-6-1.9-9.6-1.9-2.7 0-5.6.6-5.6 3 0 3.9 14.9 3.6 14.9 12.3 0 8.6-7.2 12.8-16.2 13-5.2.1-10.8-.7-14.5-1.8l2.4-8.2zM141.1 69l-1.3 7.1h.1c1.9-4.1 5.8-7.9 10.7-7.9 1.6 0 3.5.2 5 .9l-2.7 10.6c-1.5-1.2-3.3-1.5-5.5-1.5-5 0-8 4.4-8.9 9.5l-3.4 15.9h-12l7.3-34.6h10.7zm25 14c.9-3.3 3.7-6.8 8.8-6.8 4.4 0 5.8 3.1 5.8 6.8h-14.6zm19.4 11.1c-3.3 1.6-7.6 2.4-10.8 2.4-7.3 0-9.2-2.9-9.3-6.6h24.5c.5-2.1.9-5.1.9-6.5 0-10.5-6.8-15.1-15.9-15.1-15.4 0-20.7 12.4-20.7 20.4 0 8.7 6.2 15.8 17.8 15.8 3.5 0 7.9-.7 12.1-1.9l1.4-8.5zm26 1.2c-3.8 0-5.7-2.9-5.7-7.1 0-5.4 3.4-10.8 9-10.8 4 0 5.7 3.6 5.7 7 0 4.6-3.4 10.9-9 10.9zm6.6 8.3h11c.1-1.4.3-3.1.7-5.2l9.3-44.6h-11.8l-4.2 20.8h-.1c-1.8-3.7-6-6.4-12-6.4-11.8 0-17.5 10.6-17.5 21.9 0 7.8 5.4 14.3 12.9 14.3 6.6 0 9.5-2.5 12.6-6.3h.1l-1 5.5zM241.2 69h12.1l-7.2 34.6H234l7.2-34.6zm3.1-14.4h12.1l-1.9 8.8h-12.1l1.9-8.8zM256.5 69h6.8l1.7-7.4 12.6-3.4-2.4 10.8h8.2l-1.5 8.4h-8.7l-2.1 9.6c-.5 2.6-1 4.3-1 6 0 2.3 1.5 3.9 3.9 3.9 1.3 0 2.6-.5 3.9-1l-1.3 7.9c-2.5.4-5 .7-7.4.7-6.1 0-11-3-11-10.2 0-1.7.3-3.5 1.1-7.1l2.1-9.7H255l1.5-8.5zM165 13.7l-11.8 21.9h-.1L150 13.7h-12.2l7.6 34.5-1.3 2.1c-1.8 3.3-3.6 5.7-7 5.7-1.5 0-2.8-.2-3.9-.6l-1.9 8.9c1.9.5 4.2.8 7.2.8 7.6 0 11.6-4.1 15.1-10.2l1.3-2.1 22.7-39.2H165zM121.5 93c-3.1 1.4-6.9 2.3-11.1 2.3-7.4 0-12.7-3.9-12.7-12.1 0-8.8 6-21.1 18.4-21.1 3.8 0 7.7.3 11.5 1.6l1.9-8.9c-2.8-.9-7.5-1.8-15.3-1.8-17.4 0-29.3 14.6-29.3 30 0 12.8 8.6 21.6 23.5 21.6 3.6 0 7.8-.6 10.9-1.4l2.2-10.2zM78.2 28.7c0-4.2-2.6-7.1-6.6-7.1-5.9 0-10 6.1-10 11.4 0 4.2 2.5 7.3 6.7 7.3 5.7 0 9.9-6 9.9-11.6z"/><path class="st0" d="M101.2 38.5c-3.3 13.8-15.6 24-30.4 24-17.3 0-31.3-14-31.3-31.3C39.6 14 53.6 0 70.8 0c12.1 0 22.6 6.9 27.8 17 1 2.1 1.6 4.5 1.6 7.5 0 11.1-10.4 15.8-14.9 15.8-1 0-1.3-.5-1.3-1.3s.4-2.1.6-3l4.9-21.7H82l-1 4.3c-2.5-3.7-6.1-5.7-10.3-5.7-10.2 0-18.4 9.7-18.4 21.5C52.3 43 58.7 49 66.1 49c3.7 0 6.8-2.1 9-4.6h.2c.1 3.1 2.3 4.6 4.8 4.6 4 0 14.6-2.9 21.1-10.5zm44.8 83.6c.6-1 .9-2.2.9-3.6s-.3-2.6-1-3.6c-.6-1-1.6-1.7-2.9-2.2s-2.8-.8-4.6-.8h-6.3l-4.4 22.6h4.9l1.5-8h3.4l3.2 8h5.4l-4.3-9c.6-.3 1.2-.6 1.8-1 1.1-.6 1.8-1.4 2.4-2.4zm-4.6-1.1c-.4.6-.9 1.1-1.7 1.4-.7.3-1.6.5-2.5.5h-2.3l1.4-7.3h1.8c1.3 0 2.2.3 2.9.8.7.5 1 1.3 1 2.3-.1.9-.3 1.6-.6 2.3zm15.9-2.1c-1.3 0-2.4.2-3.5.7-1.1.5-2 1.1-2.8 1.9s-1.4 1.8-1.8 2.9c-.4 1.1-.7 2.3-.7 3.6 0 1.1.2 2.1.6 3 .4.9.9 1.6 1.6 2.2.7.6 1.5 1.1 2.5 1.4 1 .3 2.1.5 3.4.5.3 0 .7 0 1.1-.1.4 0 .8-.1 1.3-.2.4-.1.9-.2 1.3-.3l1.2-.3.6-3.8c-.7.4-1.5.6-2.3.8s-1.6.3-2.2.3c-1.6 0-2.8-.3-3.5-.8s-1.1-1.4-1.2-2.6h10.5l.3-1.5c.1-.5.1-1 .1-1.5 0-1.9-.6-3.4-1.8-4.5-1-1.2-2.6-1.7-4.7-1.7zm2.4 6.2v.3h-6.3c.3-1 .7-1.7 1.4-2.3.6-.6 1.5-.9 2.4-.9.8 0 1.4.2 1.9.7.5.4.7 1.1.7 1.9-.1 0-.1.1-.1.3zm53.2-6.2c-.8 0-1.5.1-2.1.4-.7.3-1.3.7-1.8 1.2-.3.3-.5.6-.8 1l.3-2.2h-4.4l-3 15.3h4.6l1.6-8.1c.1-.7.4-1.4.7-1.9.3-.5.7-.9 1.1-1.2.4-.3.9-.4 1.5-.4.7 0 1.2.2 1.5.5s.5.9.5 1.6v.5c0 .2 0 .4-.1.6l-1.6 8.4h4.6l1.7-8.9c.1-.3.1-.7.1-1v-1c0-1.5-.4-2.7-1.2-3.6s-1.8-1.2-3.2-1.2zm36.8 0c-.8 0-1.5.1-2.1.4-.7.3-1.3.7-1.8 1.2-.3.3-.5.6-.8 1l.3-2.2h-4.4l-3 15.3h4.6l1.6-8.1c.1-.7.4-1.4.7-1.9.3-.5.7-.9 1.1-1.2.4-.3.9-.4 1.5-.4.7 0 1.2.2 1.5.5s.5.9.5 1.6v.5c0 .2 0 .4-.1.6l-1.6 8.4h4.6l1.7-8.9c.1-.3.1-.7.1-1v-1c0-1.5-.4-2.7-1.2-3.6s-1.8-1.2-3.2-1.2zm-51.1 5.8v-1c0-.9-.2-1.6-.4-2.3-.2-.5-.5-.9-.8-1.3-.3-.4-.7-.6-1.2-.8-.6-.3-1.3-.5-2.2-.5-.8 0-1.5.1-2.1.4-.7.3-1.3.7-1.8 1.2-.2.2-.4.5-.6.8l2.1-10.8H187l-1.7 8.9-3 15.3h4.6l.3-1.5 1-5.4.2-1.2c.1-.7.3-1.2.6-1.7 0-.1.1-.1.1-.2.3-.5.7-.9 1.1-1.2.1-.1.3-.1.5-.2.3-.1.6-.2 1-.2.7 0 1.2.2 1.5.5s.5.9.5 1.6v.5c0 .2 0 .4-.1.6l-.3 1.5-1.1 5.9-.2 1h4.6l.4-1.9 1.4-7c.2-.4.2-.7.2-1zm31.7 2.7c-.2 1.1-.6 2-1.1 2.6-.5.6-1.2.9-2 .9-1.4 0-2-.7-2-2.1 0-.3 0-.7.1-1.1l1.6-8.4h-4.7l-1.7 8.9c-.1.7-.2 1.3-.2 2 0 1.5.4 2.7 1.2 3.6.8.9 1.9 1.3 3.4 1.3 1.1 0 2.1-.3 3-.9.8-.5 1.4-1.2 1.8-2.1l-.4 2.6h4.4l3-15.2H232l-1.7 7.9zm-61.2-6.2c-1.5 1.7-2.5 4.4-2.5 7.1 0 4.4 2.7 6.7 8 6.7 2 0 3.5-.3 4.9-1.1l-.6-3.3c-1.2.6-2.5 1-3.9 1-2.2 0-3.6-1.2-3.6-3.2 0-1.4.4-3.1 1.1-4.2.8-1.4 2.2-2.2 4-2.2 1.4 0 2.6.4 3.3 1.2l1.9-3.1c-1.5-1-3.4-1.5-5.7-1.5-3-.1-5.3.9-6.9 2.6zm101.5-1.9-.6 2.5c-.2-.4-.4-.9-.7-1.2-.3-.4-.7-.7-1.1-.9-.2-.1-.4-.3-.6-.4-.7-.3-1.5-.4-2.3-.4-.4 0-.7 0-1.1.1-.7.1-1.4.3-2 .6-1 .5-1.8 1.2-2.6 2-.7.9-1.3 1.8-1.7 3-.4 1.1-.6 2.3-.6 3.6 0 1.4.2 2.6.7 3.6s1.2 1.9 2.1 2.4c.9.6 1.9.9 3.1.9.8 0 1.5-.1 2.1-.4.7-.3 1.3-.7 1.8-1.1.3-.3.6-.6.8-1l-.2 1.6c-.7 4.1-2.4 5.6-6.1 5.6-1.8 0-3.2-.3-4.5-1l-1.6 3.4c1.9.6 3.8.9 6.1.9 3.8 0 6.2-1 8.1-3.3 1-1.2 1.6-2.6 2.2-5.2l3-15.3h-4.3zm-2 9.3c-.2.5-.5.8-.9 1.2-.2.2-.4.4-.6.5-.6.4-1.3.6-2.1.6-.6 0-1.2-.1-1.6-.4-.5-.3-.8-.7-1.1-1.2-.2-.5-.4-1.1-.4-1.8 0-.9.2-1.6.5-2.3.4-.7.8-1.3 1.5-1.7.6-.4 1.3-.6 2-.6.6 0 1.2.1 1.6.4.5.3.8.7 1.1 1.2.1.1.1.3.1.4.1.4.2.9.2 1.4.2.9 0 1.6-.3 2.3z"/></g></svg>